ISO-10303-21;
HEADER;
/* Generated by software containing ST-Developer
 * from STEP Tools, Inc. (www.steptools.com) 
 */

FILE_DESCRIPTION(
/* description */ (''),
/* implementation_level */ '2;1');

FILE_NAME(
/* name */ 'Male_1_pin_header.step',
/* time_stamp */ '2026-10-08T20:03:39-04:00',
/* author */ (''),
/* organization */ (''),
/* preprocessor_version */ 'ST-DEVELOPER v20.2',
/* originating_system */ 'Autodesk Translation Framework v15.15.0.0',
/* authorisation */ '');

FILE_SCHEMA (('AUTOMOTIVE_DESIGN { 1 0 10303 214 3 1 1 }'));
ENDSEC;

DATA;
#10=MECHANICAL_DESIGN_GEOMETRIC_PRESENTATION_REPRESENTATION('',(#25,#26),
#967);
#11=ITEM_DEFINED_TRANSFORMATION($,$,#613,#647);
#12=ITEM_DEFINED_TRANSFORMATION($,$,#628,#648);
#13=(
REPRESENTATION_RELATIONSHIP($,$,#981,#980)
REPRESENTATION_RELATIONSHIP_WITH_TRANSFORMATION(#11)
SHAPE_REPRESENTATION_RELATIONSHIP()
);
#14=(
REPRESENTATION_RELATIONSHIP($,$,#982,#980)
REPRESENTATION_RELATIONSHIP_WITH_TRANSFORMATION(#12)
SHAPE_REPRESENTATION_RELATIONSHIP()
);
#15=CONTEXT_DEPENDENT_SHAPE_REPRESENTATION(#13,#978);
#16=CONTEXT_DEPENDENT_SHAPE_REPRESENTATION(#14,#979);
#17=NEXT_ASSEMBLY_USAGE_OCCURRENCE('Stift:1','Stift:1','Stift:1',#984,#985,
'Stift:1');
#18=NEXT_ASSEMBLY_USAGE_OCCURRENCE('Klammer:1','Klammer:1','Klammer:1',
#984,#986,'Klammer:1');
#19=FACE_BOUND('',#77,.T.);
#20=FACE_BOUND('',#81,.T.);
#21=SHAPE_REPRESENTATION_RELATIONSHIP('SRR','None',#981,#23);
#22=SHAPE_REPRESENTATION_RELATIONSHIP('SRR','None',#982,#24);
#23=ADVANCED_BREP_SHAPE_REPRESENTATION('',(#27),#965);
#24=ADVANCED_BREP_SHAPE_REPRESENTATION('',(#28),#966);
#25=STYLED_ITEM('',(#1000),#27);
#26=STYLED_ITEM('',(#1001),#28);
#27=MANIFOLD_SOLID_BREP('Body1',#587);
#28=MANIFOLD_SOLID_BREP('Body1',#588);
#29=FACE_OUTER_BOUND('',#61,.T.);
#30=FACE_OUTER_BOUND('',#62,.T.);
#31=FACE_OUTER_BOUND('',#63,.T.);
#32=FACE_OUTER_BOUND('',#64,.T.);
#33=FACE_OUTER_BOUND('',#65,.T.);
#34=FACE_OUTER_BOUND('',#66,.T.);
#35=FACE_OUTER_BOUND('',#67,.T.);
#36=FACE_OUTER_BOUND('',#68,.T.);
#37=FACE_OUTER_BOUND('',#69,.T.);
#38=FACE_OUTER_BOUND('',#70,.T.);
#39=FACE_OUTER_BOUND('',#71,.T.);
#40=FACE_OUTER_BOUND('',#72,.T.);
#41=FACE_OUTER_BOUND('',#73,.T.);
#42=FACE_OUTER_BOUND('',#74,.T.);
#43=FACE_OUTER_BOUND('',#75,.T.);
#44=FACE_OUTER_BOUND('',#76,.T.);
#45=FACE_OUTER_BOUND('',#78,.T.);
#46=FACE_OUTER_BOUND('',#79,.T.);
#47=FACE_OUTER_BOUND('',#80,.T.);
#48=FACE_OUTER_BOUND('',#82,.T.);
#49=FACE_OUTER_BOUND('',#83,.T.);
#50=FACE_OUTER_BOUND('',#84,.T.);
#51=FACE_OUTER_BOUND('',#85,.T.);
#52=FACE_OUTER_BOUND('',#86,.T.);
#53=FACE_OUTER_BOUND('',#87,.T.);
#54=FACE_OUTER_BOUND('',#88,.T.);
#55=FACE_OUTER_BOUND('',#89,.T.);
#56=FACE_OUTER_BOUND('',#90,.T.);
#57=FACE_OUTER_BOUND('',#91,.T.);
#58=FACE_OUTER_BOUND('',#92,.T.);
#59=FACE_OUTER_BOUND('',#93,.T.);
#60=FACE_OUTER_BOUND('',#94,.T.);
#61=EDGE_LOOP('',(#371,#372,#373,#374));
#62=EDGE_LOOP('',(#375,#376,#377,#378));
#63=EDGE_LOOP('',(#379,#380,#381,#382));
#64=EDGE_LOOP('',(#383,#384,#385,#386));
#65=EDGE_LOOP('',(#387,#388,#389,#390));
#66=EDGE_LOOP('',(#391,#392,#393,#394));
#67=EDGE_LOOP('',(#395,#396,#397,#398));
#68=EDGE_LOOP('',(#399,#400,#401,#402));
#69=EDGE_LOOP('',(#403,#404,#405,#406));
#70=EDGE_LOOP('',(#407,#408,#409,#410));
#71=EDGE_LOOP('',(#411,#412,#413,#414));
#72=EDGE_LOOP('',(#415,#416,#417,#418));
#73=EDGE_LOOP('',(#419,#420,#421,#422));
#74=EDGE_LOOP('',(#423,#424,#425,#426));
#75=EDGE_LOOP('',(#427,#428,#429,#430,#431,#432,#433,#434));
#76=EDGE_LOOP('',(#435,#436,#437,#438));
#77=EDGE_LOOP('',(#439,#440,#441,#442));
#78=EDGE_LOOP('',(#443,#444,#445,#446));
#79=EDGE_LOOP('',(#447,#448,#449,#450,#451,#452));
#80=EDGE_LOOP('',(#453,#454,#455,#456,#457,#458,#459,#460));
#81=EDGE_LOOP('',(#461,#462,#463,#464));
#82=EDGE_LOOP('',(#465,#466,#467,#468));
#83=EDGE_LOOP('',(#469,#470,#471,#472));
#84=EDGE_LOOP('',(#473,#474,#475,#476));
#85=EDGE_LOOP('',(#477,#478,#479,#480));
#86=EDGE_LOOP('',(#481,#482,#483,#484));
#87=EDGE_LOOP('',(#485,#486,#487,#488,#489,#490));
#88=EDGE_LOOP('',(#491,#492,#493,#494));
#89=EDGE_LOOP('',(#495,#496,#497,#498));
#90=EDGE_LOOP('',(#499,#500,#501,#502));
#91=EDGE_LOOP('',(#503,#504,#505,#506));
#92=EDGE_LOOP('',(#507,#508,#509,#510));
#93=EDGE_LOOP('',(#511,#512,#513,#514));
#94=EDGE_LOOP('',(#515,#516,#517,#518,#519,#520,#521,#522));
#95=LINE('',#804,#171);
#96=LINE('',#806,#172);
#97=LINE('',#808,#173);
#98=LINE('',#809,#174);
#99=LINE('',#812,#175);
#100=LINE('',#814,#176);
#101=LINE('',#815,#177);
#102=LINE('',#818,#178);
#103=LINE('',#820,#179);
#104=LINE('',#821,#180);
#105=LINE('',#823,#181);
#106=LINE('',#824,#182);
#107=LINE('',#827,#183);
#108=LINE('',#829,#184);
#109=LINE('',#830,#185);
#110=LINE('',#833,#186);
#111=LINE('',#834,#187);
#112=LINE('',#837,#188);
#113=LINE('',#839,#189);
#114=LINE('',#840,#190);
#115=LINE('',#843,#191);
#116=LINE('',#845,#192);
#117=LINE('',#846,#193);
#118=LINE('',#849,#194);
#119=LINE('',#850,#195);
#120=LINE('',#851,#196);
#121=LINE('',#853,#197);
#122=LINE('',#855,#198);
#123=LINE('',#863,#199);
#124=LINE('',#865,#200);
#125=LINE('',#867,#201);
#126=LINE('',#869,#202);
#127=LINE('',#871,#203);
#128=LINE('',#873,#204);
#129=LINE('',#875,#205);
#130=LINE('',#876,#206);
#131=LINE('',#879,#207);
#132=LINE('',#881,#208);
#133=LINE('',#882,#209);
#134=LINE('',#885,#210);
#135=LINE('',#887,#211);
#136=LINE('',#889,#212);
#137=LINE('',#890,#213);
#138=LINE('',#893,#214);
#139=LINE('',#894,#215);
#140=LINE('',#897,#216);
#141=LINE('',#899,#217);
#142=LINE('',#901,#218);
#143=LINE('',#902,#219);
#144=LINE('',#905,#220);
#145=LINE('',#907,#221);
#146=LINE('',#909,#222);
#147=LINE('',#911,#223);
#148=LINE('',#913,#224);
#149=LINE('',#915,#225);
#150=LINE('',#916,#226);
#151=LINE('',#919,#227);
#152=LINE('',#921,#228);
#153=LINE('',#923,#229);
#154=LINE('',#924,#230);
#155=LINE('',#926,#231);
#156=LINE('',#929,#232);
#157=LINE('',#930,#233);
#158=LINE('',#932,#234);
#159=LINE('',#933,#235);
#160=LINE('',#937,#236);
#161=LINE('',#939,#237);
#162=LINE('',#940,#238);
#163=LINE('',#943,#239);
#164=LINE('',#944,#240);
#165=LINE('',#945,#241);
#166=LINE('',#948,#242);
#167=LINE('',#950,#243);
#168=LINE('',#951,#244);
#169=LINE('',#953,#245);
#170=LINE('',#955,#246);
#171=VECTOR('',#655,10.);
#172=VECTOR('',#656,10.);
#173=VECTOR('',#657,10.);
#174=VECTOR('',#658,10.);
#175=VECTOR('',#661,10.);
#176=VECTOR('',#662,10.);
#177=VECTOR('',#663,10.);
#178=VECTOR('',#666,10.);
#179=VECTOR('',#667,10.);
#180=VECTOR('',#668,10.);
#181=VECTOR('',#671,10.);
#182=VECTOR('',#672,10.);
#183=VECTOR('',#675,10.);
#184=VECTOR('',#676,10.);
#185=VECTOR('',#677,10.);
#186=VECTOR('',#680,10.);
#187=VECTOR('',#681,10.);
#188=VECTOR('',#684,10.);
#189=VECTOR('',#685,10.);
#190=VECTOR('',#686,10.);
#191=VECTOR('',#689,10.);
#192=VECTOR('',#690,10.);
#193=VECTOR('',#691,10.);
#194=VECTOR('',#694,10.);
#195=VECTOR('',#695,10.);
#196=VECTOR('',#696,10.);
#197=VECTOR('',#699,10.);
#198=VECTOR('',#702,10.);
#199=VECTOR('',#713,10.);
#200=VECTOR('',#714,10.);
#201=VECTOR('',#715,10.);
#202=VECTOR('',#716,10.);
#203=VECTOR('',#717,10.);
#204=VECTOR('',#718,10.);
#205=VECTOR('',#719,10.);
#206=VECTOR('',#720,10.);
#207=VECTOR('',#723,10.);
#208=VECTOR('',#724,10.);
#209=VECTOR('',#725,10.);
#210=VECTOR('',#726,10.);
#211=VECTOR('',#727,10.);
#212=VECTOR('',#728,10.);
#213=VECTOR('',#729,10.);
#214=VECTOR('',#732,10.);
#215=VECTOR('',#733,10.);
#216=VECTOR('',#736,10.);
#217=VECTOR('',#737,10.);
#218=VECTOR('',#738,10.);
#219=VECTOR('',#739,10.);
#220=VECTOR('',#742,10.);
#221=VECTOR('',#743,10.);
#222=VECTOR('',#744,10.);
#223=VECTOR('',#745,10.);
#224=VECTOR('',#746,10.);
#225=VECTOR('',#747,10.);
#226=VECTOR('',#748,10.);
#227=VECTOR('',#749,10.);
#228=VECTOR('',#750,10.);
#229=VECTOR('',#751,10.);
#230=VECTOR('',#752,10.);
#231=VECTOR('',#755,10.);
#232=VECTOR('',#758,10.);
#233=VECTOR('',#759,10.);
#234=VECTOR('',#762,10.);
#235=VECTOR('',#763,10.);
#236=VECTOR('',#768,10.);
#237=VECTOR('',#769,10.);
#238=VECTOR('',#770,10.);
#239=VECTOR('',#773,10.);
#240=VECTOR('',#774,10.);
#241=VECTOR('',#775,10.);
#242=VECTOR('',#780,10.);
#243=VECTOR('',#783,10.);
#244=VECTOR('',#784,10.);
#245=VECTOR('',#787,10.);
#246=VECTOR('',#790,10.);
#247=VERTEX_POINT('',#802);
#248=VERTEX_POINT('',#803);
#249=VERTEX_POINT('',#805);
#250=VERTEX_POINT('',#807);
#251=VERTEX_POINT('',#811);
#252=VERTEX_POINT('',#813);
#253=VERTEX_POINT('',#817);
#254=VERTEX_POINT('',#819);
#255=VERTEX_POINT('',#826);
#256=VERTEX_POINT('',#828);
#257=VERTEX_POINT('',#832);
#258=VERTEX_POINT('',#836);
#259=VERTEX_POINT('',#838);
#260=VERTEX_POINT('',#842);
#261=VERTEX_POINT('',#844);
#262=VERTEX_POINT('',#848);
#263=VERTEX_POINT('',#861);
#264=VERTEX_POINT('',#862);
#265=VERTEX_POINT('',#864);
#266=VERTEX_POINT('',#866);
#267=VERTEX_POINT('',#868);
#268=VERTEX_POINT('',#870);
#269=VERTEX_POINT('',#872);
#270=VERTEX_POINT('',#874);
#271=VERTEX_POINT('',#878);
#272=VERTEX_POINT('',#880);
#273=VERTEX_POINT('',#883);
#274=VERTEX_POINT('',#884);
#275=VERTEX_POINT('',#886);
#276=VERTEX_POINT('',#888);
#277=VERTEX_POINT('',#892);
#278=VERTEX_POINT('',#896);
#279=VERTEX_POINT('',#898);
#280=VERTEX_POINT('',#900);
#281=VERTEX_POINT('',#904);
#282=VERTEX_POINT('',#906);
#283=VERTEX_POINT('',#908);
#284=VERTEX_POINT('',#910);
#285=VERTEX_POINT('',#912);
#286=VERTEX_POINT('',#914);
#287=VERTEX_POINT('',#917);
#288=VERTEX_POINT('',#918);
#289=VERTEX_POINT('',#920);
#290=VERTEX_POINT('',#922);
#291=VERTEX_POINT('',#928);
#292=VERTEX_POINT('',#936);
#293=VERTEX_POINT('',#938);
#294=VERTEX_POINT('',#942);
#295=EDGE_CURVE('',#247,#248,#95,.T.);
#296=EDGE_CURVE('',#249,#248,#96,.T.);
#297=EDGE_CURVE('',#250,#249,#97,.T.);
#298=EDGE_CURVE('',#247,#250,#98,.T.);
#299=EDGE_CURVE('',#251,#249,#99,.T.);
#300=EDGE_CURVE('',#252,#251,#100,.T.);
#301=EDGE_CURVE('',#250,#252,#101,.T.);
#302=EDGE_CURVE('',#253,#251,#102,.T.);
#303=EDGE_CURVE('',#254,#253,#103,.T.);
#304=EDGE_CURVE('',#252,#254,#104,.T.);
#305=EDGE_CURVE('',#248,#253,#105,.T.);
#306=EDGE_CURVE('',#254,#247,#106,.T.);
#307=EDGE_CURVE('',#248,#255,#107,.T.);
#308=EDGE_CURVE('',#255,#256,#108,.T.);
#309=EDGE_CURVE('',#249,#256,#109,.T.);
#310=EDGE_CURVE('',#253,#257,#110,.T.);
#311=EDGE_CURVE('',#257,#255,#111,.T.);
#312=EDGE_CURVE('',#258,#255,#112,.T.);
#313=EDGE_CURVE('',#259,#258,#113,.T.);
#314=EDGE_CURVE('',#259,#256,#114,.T.);
#315=EDGE_CURVE('',#260,#259,#115,.T.);
#316=EDGE_CURVE('',#260,#261,#116,.T.);
#317=EDGE_CURVE('',#256,#261,#117,.T.);
#318=EDGE_CURVE('',#262,#260,#118,.T.);
#319=EDGE_CURVE('',#262,#257,#119,.T.);
#320=EDGE_CURVE('',#261,#257,#120,.T.);
#321=EDGE_CURVE('',#258,#262,#121,.T.);
#322=EDGE_CURVE('',#251,#261,#122,.T.);
#323=EDGE_CURVE('',#263,#264,#123,.T.);
#324=EDGE_CURVE('',#265,#263,#124,.T.);
#325=EDGE_CURVE('',#266,#265,#125,.T.);
#326=EDGE_CURVE('',#267,#266,#126,.T.);
#327=EDGE_CURVE('',#268,#267,#127,.T.);
#328=EDGE_CURVE('',#269,#268,#128,.T.);
#329=EDGE_CURVE('',#270,#269,#129,.T.);
#330=EDGE_CURVE('',#264,#270,#130,.T.);
#331=EDGE_CURVE('',#271,#267,#131,.T.);
#332=EDGE_CURVE('',#272,#271,#132,.T.);
#333=EDGE_CURVE('',#268,#272,#133,.T.);
#334=EDGE_CURVE('',#273,#274,#134,.T.);
#335=EDGE_CURVE('',#275,#273,#135,.T.);
#336=EDGE_CURVE('',#276,#275,#136,.T.);
#337=EDGE_CURVE('',#274,#276,#137,.T.);
#338=EDGE_CURVE('',#277,#266,#138,.T.);
#339=EDGE_CURVE('',#271,#277,#139,.T.);
#340=EDGE_CURVE('',#278,#265,#140,.T.);
#341=EDGE_CURVE('',#279,#278,#141,.T.);
#342=EDGE_CURVE('',#280,#279,#142,.T.);
#343=EDGE_CURVE('',#277,#280,#143,.T.);
#344=EDGE_CURVE('',#281,#264,#144,.T.);
#345=EDGE_CURVE('',#281,#282,#145,.T.);
#346=EDGE_CURVE('',#283,#282,#146,.T.);
#347=EDGE_CURVE('',#283,#284,#147,.T.);
#348=EDGE_CURVE('',#285,#284,#148,.T.);
#349=EDGE_CURVE('',#285,#286,#149,.T.);
#350=EDGE_CURVE('',#263,#286,#150,.T.);
#351=EDGE_CURVE('',#287,#288,#151,.T.);
#352=EDGE_CURVE('',#288,#289,#152,.T.);
#353=EDGE_CURVE('',#289,#290,#153,.T.);
#354=EDGE_CURVE('',#290,#287,#154,.T.);
#355=EDGE_CURVE('',#286,#278,#155,.T.);
#356=EDGE_CURVE('',#270,#291,#156,.T.);
#357=EDGE_CURVE('',#291,#281,#157,.T.);
#358=EDGE_CURVE('',#284,#280,#158,.T.);
#359=EDGE_CURVE('',#279,#285,#159,.T.);
#360=EDGE_CURVE('',#282,#292,#160,.T.);
#361=EDGE_CURVE('',#292,#293,#161,.T.);
#362=EDGE_CURVE('',#293,#283,#162,.T.);
#363=EDGE_CURVE('',#269,#294,#163,.T.);
#364=EDGE_CURVE('',#293,#294,#164,.T.);
#365=EDGE_CURVE('',#291,#292,#165,.T.);
#366=EDGE_CURVE('',#294,#272,#166,.T.);
#367=EDGE_CURVE('',#273,#287,#167,.T.);
#368=EDGE_CURVE('',#275,#290,#168,.T.);
#369=EDGE_CURVE('',#274,#288,#169,.T.);
#370=EDGE_CURVE('',#276,#289,#170,.T.);
#371=ORIENTED_EDGE('',*,*,#295,.T.);
#372=ORIENTED_EDGE('',*,*,#296,.F.);
#373=ORIENTED_EDGE('',*,*,#297,.F.);
#374=ORIENTED_EDGE('',*,*,#298,.F.);
#375=ORIENTED_EDGE('',*,*,#297,.T.);
#376=ORIENTED_EDGE('',*,*,#299,.F.);
#377=ORIENTED_EDGE('',*,*,#300,.F.);
#378=ORIENTED_EDGE('',*,*,#301,.F.);
#379=ORIENTED_EDGE('',*,*,#300,.T.);
#380=ORIENTED_EDGE('',*,*,#302,.F.);
#381=ORIENTED_EDGE('',*,*,#303,.F.);
#382=ORIENTED_EDGE('',*,*,#304,.F.);
#383=ORIENTED_EDGE('',*,*,#303,.T.);
#384=ORIENTED_EDGE('',*,*,#305,.F.);
#385=ORIENTED_EDGE('',*,*,#295,.F.);
#386=ORIENTED_EDGE('',*,*,#306,.F.);
#387=ORIENTED_EDGE('',*,*,#296,.T.);
#388=ORIENTED_EDGE('',*,*,#307,.T.);
#389=ORIENTED_EDGE('',*,*,#308,.T.);
#390=ORIENTED_EDGE('',*,*,#309,.F.);
#391=ORIENTED_EDGE('',*,*,#305,.T.);
#392=ORIENTED_EDGE('',*,*,#310,.T.);
#393=ORIENTED_EDGE('',*,*,#311,.T.);
#394=ORIENTED_EDGE('',*,*,#307,.F.);
#395=ORIENTED_EDGE('',*,*,#312,.F.);
#396=ORIENTED_EDGE('',*,*,#313,.F.);
#397=ORIENTED_EDGE('',*,*,#314,.T.);
#398=ORIENTED_EDGE('',*,*,#308,.F.);
#399=ORIENTED_EDGE('',*,*,#314,.F.);
#400=ORIENTED_EDGE('',*,*,#315,.F.);
#401=ORIENTED_EDGE('',*,*,#316,.T.);
#402=ORIENTED_EDGE('',*,*,#317,.F.);
#403=ORIENTED_EDGE('',*,*,#316,.F.);
#404=ORIENTED_EDGE('',*,*,#318,.F.);
#405=ORIENTED_EDGE('',*,*,#319,.T.);
#406=ORIENTED_EDGE('',*,*,#320,.F.);
#407=ORIENTED_EDGE('',*,*,#319,.F.);
#408=ORIENTED_EDGE('',*,*,#321,.F.);
#409=ORIENTED_EDGE('',*,*,#312,.T.);
#410=ORIENTED_EDGE('',*,*,#311,.F.);
#411=ORIENTED_EDGE('',*,*,#299,.T.);
#412=ORIENTED_EDGE('',*,*,#309,.T.);
#413=ORIENTED_EDGE('',*,*,#317,.T.);
#414=ORIENTED_EDGE('',*,*,#322,.F.);
#415=ORIENTED_EDGE('',*,*,#302,.T.);
#416=ORIENTED_EDGE('',*,*,#322,.T.);
#417=ORIENTED_EDGE('',*,*,#320,.T.);
#418=ORIENTED_EDGE('',*,*,#310,.F.);
#419=ORIENTED_EDGE('',*,*,#313,.T.);
#420=ORIENTED_EDGE('',*,*,#321,.T.);
#421=ORIENTED_EDGE('',*,*,#318,.T.);
#422=ORIENTED_EDGE('',*,*,#315,.T.);
#423=ORIENTED_EDGE('',*,*,#298,.T.);
#424=ORIENTED_EDGE('',*,*,#301,.T.);
#425=ORIENTED_EDGE('',*,*,#304,.T.);
#426=ORIENTED_EDGE('',*,*,#306,.T.);
#427=ORIENTED_EDGE('',*,*,#323,.F.);
#428=ORIENTED_EDGE('',*,*,#324,.F.);
#429=ORIENTED_EDGE('',*,*,#325,.F.);
#430=ORIENTED_EDGE('',*,*,#326,.F.);
#431=ORIENTED_EDGE('',*,*,#327,.F.);
#432=ORIENTED_EDGE('',*,*,#328,.F.);
#433=ORIENTED_EDGE('',*,*,#329,.F.);
#434=ORIENTED_EDGE('',*,*,#330,.F.);
#435=ORIENTED_EDGE('',*,*,#327,.T.);
#436=ORIENTED_EDGE('',*,*,#331,.F.);
#437=ORIENTED_EDGE('',*,*,#332,.F.);
#438=ORIENTED_EDGE('',*,*,#333,.F.);
#439=ORIENTED_EDGE('',*,*,#334,.F.);
#440=ORIENTED_EDGE('',*,*,#335,.F.);
#441=ORIENTED_EDGE('',*,*,#336,.F.);
#442=ORIENTED_EDGE('',*,*,#337,.F.);
#443=ORIENTED_EDGE('',*,*,#326,.T.);
#444=ORIENTED_EDGE('',*,*,#338,.F.);
#445=ORIENTED_EDGE('',*,*,#339,.F.);
#446=ORIENTED_EDGE('',*,*,#331,.T.);
#447=ORIENTED_EDGE('',*,*,#325,.T.);
#448=ORIENTED_EDGE('',*,*,#340,.F.);
#449=ORIENTED_EDGE('',*,*,#341,.F.);
#450=ORIENTED_EDGE('',*,*,#342,.F.);
#451=ORIENTED_EDGE('',*,*,#343,.F.);
#452=ORIENTED_EDGE('',*,*,#338,.T.);
#453=ORIENTED_EDGE('',*,*,#323,.T.);
#454=ORIENTED_EDGE('',*,*,#344,.F.);
#455=ORIENTED_EDGE('',*,*,#345,.T.);
#456=ORIENTED_EDGE('',*,*,#346,.F.);
#457=ORIENTED_EDGE('',*,*,#347,.T.);
#458=ORIENTED_EDGE('',*,*,#348,.F.);
#459=ORIENTED_EDGE('',*,*,#349,.T.);
#460=ORIENTED_EDGE('',*,*,#350,.F.);
#461=ORIENTED_EDGE('',*,*,#351,.T.);
#462=ORIENTED_EDGE('',*,*,#352,.T.);
#463=ORIENTED_EDGE('',*,*,#353,.T.);
#464=ORIENTED_EDGE('',*,*,#354,.T.);
#465=ORIENTED_EDGE('',*,*,#324,.T.);
#466=ORIENTED_EDGE('',*,*,#350,.T.);
#467=ORIENTED_EDGE('',*,*,#355,.T.);
#468=ORIENTED_EDGE('',*,*,#340,.T.);
#469=ORIENTED_EDGE('',*,*,#330,.T.);
#470=ORIENTED_EDGE('',*,*,#356,.T.);
#471=ORIENTED_EDGE('',*,*,#357,.T.);
#472=ORIENTED_EDGE('',*,*,#344,.T.);
#473=ORIENTED_EDGE('',*,*,#348,.T.);
#474=ORIENTED_EDGE('',*,*,#358,.T.);
#475=ORIENTED_EDGE('',*,*,#342,.T.);
#476=ORIENTED_EDGE('',*,*,#359,.T.);
#477=ORIENTED_EDGE('',*,*,#359,.F.);
#478=ORIENTED_EDGE('',*,*,#341,.T.);
#479=ORIENTED_EDGE('',*,*,#355,.F.);
#480=ORIENTED_EDGE('',*,*,#349,.F.);
#481=ORIENTED_EDGE('',*,*,#346,.T.);
#482=ORIENTED_EDGE('',*,*,#360,.T.);
#483=ORIENTED_EDGE('',*,*,#361,.T.);
#484=ORIENTED_EDGE('',*,*,#362,.T.);
#485=ORIENTED_EDGE('',*,*,#329,.T.);
#486=ORIENTED_EDGE('',*,*,#363,.T.);
#487=ORIENTED_EDGE('',*,*,#364,.F.);
#488=ORIENTED_EDGE('',*,*,#361,.F.);
#489=ORIENTED_EDGE('',*,*,#365,.F.);
#490=ORIENTED_EDGE('',*,*,#356,.F.);
#491=ORIENTED_EDGE('',*,*,#360,.F.);
#492=ORIENTED_EDGE('',*,*,#345,.F.);
#493=ORIENTED_EDGE('',*,*,#357,.F.);
#494=ORIENTED_EDGE('',*,*,#365,.T.);
#495=ORIENTED_EDGE('',*,*,#328,.T.);
#496=ORIENTED_EDGE('',*,*,#333,.T.);
#497=ORIENTED_EDGE('',*,*,#366,.F.);
#498=ORIENTED_EDGE('',*,*,#363,.F.);
#499=ORIENTED_EDGE('',*,*,#335,.T.);
#500=ORIENTED_EDGE('',*,*,#367,.T.);
#501=ORIENTED_EDGE('',*,*,#354,.F.);
#502=ORIENTED_EDGE('',*,*,#368,.F.);
#503=ORIENTED_EDGE('',*,*,#334,.T.);
#504=ORIENTED_EDGE('',*,*,#369,.T.);
#505=ORIENTED_EDGE('',*,*,#351,.F.);
#506=ORIENTED_EDGE('',*,*,#367,.F.);
#507=ORIENTED_EDGE('',*,*,#336,.T.);
#508=ORIENTED_EDGE('',*,*,#368,.T.);
#509=ORIENTED_EDGE('',*,*,#353,.F.);
#510=ORIENTED_EDGE('',*,*,#370,.F.);
#511=ORIENTED_EDGE('',*,*,#337,.T.);
#512=ORIENTED_EDGE('',*,*,#370,.T.);
#513=ORIENTED_EDGE('',*,*,#352,.F.);
#514=ORIENTED_EDGE('',*,*,#369,.F.);
#515=ORIENTED_EDGE('',*,*,#358,.F.);
#516=ORIENTED_EDGE('',*,*,#347,.F.);
#517=ORIENTED_EDGE('',*,*,#362,.F.);
#518=ORIENTED_EDGE('',*,*,#364,.T.);
#519=ORIENTED_EDGE('',*,*,#366,.T.);
#520=ORIENTED_EDGE('',*,*,#332,.T.);
#521=ORIENTED_EDGE('',*,*,#339,.T.);
#522=ORIENTED_EDGE('',*,*,#343,.T.);
#523=PLANE('',#614);
#524=PLANE('',#615);
#525=PLANE('',#616);
#526=PLANE('',#617);
#527=PLANE('',#618);
#528=PLANE('',#619);
#529=PLANE('',#620);
#530=PLANE('',#621);
#531=PLANE('',#622);
#532=PLANE('',#623);
#533=PLANE('',#624);
#534=PLANE('',#625);
#535=PLANE('',#626);
#536=PLANE('',#627);
#537=PLANE('',#629);
#538=PLANE('',#630);
#539=PLANE('',#631);
#540=PLANE('',#632);
#541=PLANE('',#633);
#542=PLANE('',#634);
#543=PLANE('',#635);
#544=PLANE('',#636);
#545=PLANE('',#637);
#546=PLANE('',#638);
#547=PLANE('',#639);
#548=PLANE('',#640);
#549=PLANE('',#641);
#550=PLANE('',#642);
#551=PLANE('',#643);
#552=PLANE('',#644);
#553=PLANE('',#645);
#554=PLANE('',#646);
#555=ADVANCED_FACE('',(#29),#523,.T.);
#556=ADVANCED_FACE('',(#30),#524,.T.);
#557=ADVANCED_FACE('',(#31),#525,.T.);
#558=ADVANCED_FACE('',(#32),#526,.T.);
#559=ADVANCED_FACE('',(#33),#527,.T.);
#560=ADVANCED_FACE('',(#34),#528,.T.);
#561=ADVANCED_FACE('',(#35),#529,.F.);
#562=ADVANCED_FACE('',(#36),#530,.F.);
#563=ADVANCED_FACE('',(#37),#531,.F.);
#564=ADVANCED_FACE('',(#38),#532,.F.);
#565=ADVANCED_FACE('',(#39),#533,.T.);
#566=ADVANCED_FACE('',(#40),#534,.T.);
#567=ADVANCED_FACE('',(#41),#535,.T.);
#568=ADVANCED_FACE('',(#42),#536,.F.);
#569=ADVANCED_FACE('',(#43),#537,.T.);
#570=ADVANCED_FACE('',(#44,#19),#538,.F.);
#571=ADVANCED_FACE('',(#45),#539,.F.);
#572=ADVANCED_FACE('',(#46),#540,.T.);
#573=ADVANCED_FACE('',(#47,#20),#541,.T.);
#574=ADVANCED_FACE('',(#48),#542,.T.);
#575=ADVANCED_FACE('',(#49),#543,.T.);
#576=ADVANCED_FACE('',(#50),#544,.T.);
#577=ADVANCED_FACE('',(#51),#545,.T.);
#578=ADVANCED_FACE('',(#52),#546,.T.);
#579=ADVANCED_FACE('',(#53),#547,.T.);
#580=ADVANCED_FACE('',(#54),#548,.T.);
#581=ADVANCED_FACE('',(#55),#549,.F.);
#582=ADVANCED_FACE('',(#56),#550,.T.);
#583=ADVANCED_FACE('',(#57),#551,.T.);
#584=ADVANCED_FACE('',(#58),#552,.T.);
#585=ADVANCED_FACE('',(#59),#553,.T.);
#586=ADVANCED_FACE('',(#60),#554,.T.);
#587=CLOSED_SHELL('',(#555,#556,#557,#558,#559,#560,#561,#562,#563,#564,
#565,#566,#567,#568));
#588=CLOSED_SHELL('',(#569,#570,#571,#572,#573,#574,#575,#576,#577,#578,
#579,#580,#581,#582,#583,#584,#585,#586));
#589=DERIVED_UNIT_ELEMENT(#593,1.);
#590=DERIVED_UNIT_ELEMENT(#969,-3.);
#591=DERIVED_UNIT_ELEMENT(#593,1.);
#592=DERIVED_UNIT_ELEMENT(#969,-3.);
#593=(
MASS_UNIT()
NAMED_UNIT(*)
SI_UNIT(.KILO.,.GRAM.)
);
#594=DERIVED_UNIT((#589,#590));
#595=DERIVED_UNIT((#591,#592));
#596=MEASURE_REPRESENTATION_ITEM('density measure',
POSITIVE_RATIO_MEASURE(7850.),#594);
#597=MEASURE_REPRESENTATION_ITEM('density measure',
POSITIVE_RATIO_MEASURE(7850.),#595);
#598=PROPERTY_DEFINITION_REPRESENTATION(#608,#602);
#599=PROPERTY_DEFINITION_REPRESENTATION(#609,#603);
#600=PROPERTY_DEFINITION_REPRESENTATION(#610,#604);
#601=PROPERTY_DEFINITION_REPRESENTATION(#611,#605);
#602=REPRESENTATION('material name',(#606),#965);
#603=REPRESENTATION('density',(#596),#965);
#604=REPRESENTATION('material name',(#607),#966);
#605=REPRESENTATION('density',(#597),#966);
#606=DESCRIPTIVE_REPRESENTATION_ITEM('Steel','Steel');
#607=DESCRIPTIVE_REPRESENTATION_ITEM('Steel','Steel');
#608=PROPERTY_DEFINITION('material property','material name',#985);
#609=PROPERTY_DEFINITION('material property','density of part',#985);
#610=PROPERTY_DEFINITION('material property','material name',#986);
#611=PROPERTY_DEFINITION('material property','density of part',#986);
#612=AXIS2_PLACEMENT_3D('',#799,#649,#650);
#613=AXIS2_PLACEMENT_3D('',#800,#651,#652);
#614=AXIS2_PLACEMENT_3D('',#801,#653,#654);
#615=AXIS2_PLACEMENT_3D('',#810,#659,#660);
#616=AXIS2_PLACEMENT_3D('',#816,#664,#665);
#617=AXIS2_PLACEMENT_3D('',#822,#669,#670);
#618=AXIS2_PLACEMENT_3D('',#825,#673,#674);
#619=AXIS2_PLACEMENT_3D('',#831,#678,#679);
#620=AXIS2_PLACEMENT_3D('',#835,#682,#683);
#621=AXIS2_PLACEMENT_3D('',#841,#687,#688);
#622=AXIS2_PLACEMENT_3D('',#847,#692,#693);
#623=AXIS2_PLACEMENT_3D('',#852,#697,#698);
#624=AXIS2_PLACEMENT_3D('',#854,#700,#701);
#625=AXIS2_PLACEMENT_3D('',#856,#703,#704);
#626=AXIS2_PLACEMENT_3D('',#857,#705,#706);
#627=AXIS2_PLACEMENT_3D('',#858,#707,#708);
#628=AXIS2_PLACEMENT_3D('',#859,#709,#710);
#629=AXIS2_PLACEMENT_3D('',#860,#711,#712);
#630=AXIS2_PLACEMENT_3D('',#877,#721,#722);
#631=AXIS2_PLACEMENT_3D('',#891,#730,#731);
#632=AXIS2_PLACEMENT_3D('',#895,#734,#735);
#633=AXIS2_PLACEMENT_3D('',#903,#740,#741);
#634=AXIS2_PLACEMENT_3D('',#925,#753,#754);
#635=AXIS2_PLACEMENT_3D('',#927,#756,#757);
#636=AXIS2_PLACEMENT_3D('',#931,#760,#761);
#637=AXIS2_PLACEMENT_3D('',#934,#764,#765);
#638=AXIS2_PLACEMENT_3D('',#935,#766,#767);
#639=AXIS2_PLACEMENT_3D('',#941,#771,#772);
#640=AXIS2_PLACEMENT_3D('',#946,#776,#777);
#641=AXIS2_PLACEMENT_3D('',#947,#778,#779);
#642=AXIS2_PLACEMENT_3D('',#949,#781,#782);
#643=AXIS2_PLACEMENT_3D('',#952,#785,#786);
#644=AXIS2_PLACEMENT_3D('',#954,#788,#789);
#645=AXIS2_PLACEMENT_3D('',#956,#791,#792);
#646=AXIS2_PLACEMENT_3D('',#957,#793,#794);
#647=AXIS2_PLACEMENT_3D('',#958,#795,#796);
#648=AXIS2_PLACEMENT_3D('',#959,#797,#798);
#649=DIRECTION('axis',(0.,0.,1.));
#650=DIRECTION('refdir',(1.,0.,0.));
#651=DIRECTION('axis',(0.,0.,1.));
#652=DIRECTION('refdir',(1.,0.,0.));
#653=DIRECTION('center_axis',(0.,0.985058123245953,-0.172222222222224));
#654=DIRECTION('ref_axis',(0.,-0.172222222222224,-0.985058123245953));
#655=DIRECTION('',(-0.169723572153419,0.169723572153419,0.970766613615737));
#656=DIRECTION('',(-1.,0.,0.));
#657=DIRECTION('',(0.169723572153419,0.169723572153419,0.970766613615737));
#658=DIRECTION('',(1.,0.,0.));
#659=DIRECTION('center_axis',(0.985058123245953,0.,-0.172222222222224));
#660=DIRECTION('ref_axis',(-0.172222222222224,0.,-0.985058123245953));
#661=DIRECTION('',(0.,1.,0.));
#662=DIRECTION('',(0.169723572153419,-0.169723572153419,0.970766613615737));
#663=DIRECTION('',(0.,-1.,0.));
#664=DIRECTION('center_axis',(0.,-0.985058123245953,-0.172222222222224));
#665=DIRECTION('ref_axis',(0.,0.172222222222224,-0.985058123245953));
#666=DIRECTION('',(1.,0.,0.));
#667=DIRECTION('',(-0.169723572153419,-0.169723572153419,0.970766613615737));
#668=DIRECTION('',(-1.,0.,0.));
#669=DIRECTION('center_axis',(-0.985058123245953,0.,-0.172222222222224));
#670=DIRECTION('ref_axis',(0.172222222222224,0.,-0.985058123245953));
#671=DIRECTION('',(0.,-1.,0.));
#672=DIRECTION('',(0.,1.,0.));
#673=DIRECTION('center_axis',(0.,1.,0.));
#674=DIRECTION('ref_axis',(-1.,0.,0.));
#675=DIRECTION('',(0.,0.,1.));
#676=DIRECTION('',(1.,0.,0.));
#677=DIRECTION('',(0.,0.,1.));
#678=DIRECTION('center_axis',(-1.,0.,0.));
#679=DIRECTION('ref_axis',(0.,-1.,0.));
#680=DIRECTION('',(0.,0.,1.));
#681=DIRECTION('',(0.,1.,0.));
#682=DIRECTION('center_axis',(0.,-0.985058123245953,-0.172222222222224));
#683=DIRECTION('ref_axis',(0.,-0.172222222222224,0.985058123245953));
#684=DIRECTION('',(-0.169723572153419,0.169723572153419,-0.970766613615737));
#685=DIRECTION('',(-1.,0.,0.));
#686=DIRECTION('',(0.169723572153419,0.169723572153419,-0.970766613615737));
#687=DIRECTION('center_axis',(-0.985058123245953,0.,-0.172222222222224));
#688=DIRECTION('ref_axis',(-0.172222222222224,0.,0.985058123245953));
#689=DIRECTION('',(0.,1.,0.));
#690=DIRECTION('',(0.169723572153419,-0.169723572153419,-0.970766613615737));
#691=DIRECTION('',(0.,-1.,0.));
#692=DIRECTION('center_axis',(0.,0.985058123245953,-0.172222222222224));
#693=DIRECTION('ref_axis',(0.,0.172222222222224,0.985058123245953));
#694=DIRECTION('',(1.,0.,0.));
#695=DIRECTION('',(-0.169723572153419,-0.169723572153419,-0.970766613615737));
#696=DIRECTION('',(-1.,0.,0.));
#697=DIRECTION('center_axis',(0.985058123245953,0.,-0.172222222222224));
#698=DIRECTION('ref_axis',(0.172222222222224,0.,0.985058123245953));
#699=DIRECTION('',(0.,-1.,0.));
#700=DIRECTION('center_axis',(1.,0.,0.));
#701=DIRECTION('ref_axis',(0.,1.,0.));
#702=DIRECTION('',(0.,0.,1.));
#703=DIRECTION('center_axis',(0.,-1.,0.));
#704=DIRECTION('ref_axis',(1.,0.,0.));
#705=DIRECTION('center_axis',(0.,0.,1.));
#706=DIRECTION('ref_axis',(1.,0.,0.));
#707=DIRECTION('center_axis',(0.,0.,1.));
#708=DIRECTION('ref_axis',(1.,0.,0.));
#709=DIRECTION('axis',(0.,0.,1.));
#710=DIRECTION('refdir',(1.,0.,0.));
#711=DIRECTION('center_axis',(1.,0.,0.));
#712=DIRECTION('ref_axis',(0.,0.,-1.));
#713=DIRECTION('',(0.,-1.,0.));
#714=DIRECTION('',(0.,0.,-1.));
#715=DIRECTION('',(0.,1.,0.));
#716=DIRECTION('',(0.,0.,1.));
#717=DIRECTION('',(0.,1.,0.));
#718=DIRECTION('',(0.,0.,-1.));
#719=DIRECTION('',(0.,1.,0.));
#720=DIRECTION('',(0.,0.,1.));
#721=DIRECTION('center_axis',(0.,0.,-1.));
#722=DIRECTION('ref_axis',(-1.,0.,0.));
#723=DIRECTION('',(1.,-1.60128320859398E-16,0.));
#724=DIRECTION('',(-2.22044604925031E-16,1.,0.));
#725=DIRECTION('',(-1.,1.06752213906265E-16,0.));
#726=DIRECTION('',(1.,1.13752359080446E-16,0.));
#727=DIRECTION('',(1.13752359080446E-16,-1.,0.));
#728=DIRECTION('',(-1.,-5.68761795402228E-17,0.));
#729=DIRECTION('',(-5.68761795402229E-17,1.,0.));
#730=DIRECTION('center_axis',(1.60128320859398E-16,1.,0.));
#731=DIRECTION('ref_axis',(1.,-1.60128320859398E-16,0.));
#732=DIRECTION('',(1.,-1.60128320859398E-16,0.));
#733=DIRECTION('',(0.,0.,1.));
#734=DIRECTION('center_axis',(0.,0.,1.));
#735=DIRECTION('ref_axis',(1.,0.,0.));
#736=DIRECTION('',(0.707106781186547,-0.707106781186548,0.));
#737=DIRECTION('',(1.,5.33761069531325E-17,0.));
#738=DIRECTION('',(0.707106781186548,0.707106781186547,0.));
#739=DIRECTION('',(-2.22044604925031E-16,1.,0.));
#740=DIRECTION('center_axis',(0.,0.,-1.));
#741=DIRECTION('ref_axis',(-1.,0.,0.));
#742=DIRECTION('',(0.707106781186547,0.707106781186548,0.));
#743=DIRECTION('',(-1.,2.1350442781253E-16,0.));
#744=DIRECTION('',(0.707106781186547,-0.707106781186547,0.));
#745=DIRECTION('',(-2.22044604925031E-16,1.,0.));
#746=DIRECTION('',(-0.707106781186548,-0.707106781186547,0.));
#747=DIRECTION('',(1.,5.33761069531325E-17,0.));
#748=DIRECTION('',(-0.707106781186547,0.707106781186548,0.));
#749=DIRECTION('',(1.,1.13752359080446E-16,0.));
#750=DIRECTION('',(-5.68761795402229E-17,1.,0.));
#751=DIRECTION('',(-1.,-5.68761795402228E-17,0.));
#752=DIRECTION('',(1.13752359080446E-16,-1.,0.));
#753=DIRECTION('center_axis',(0.707106781186548,0.707106781186547,0.));
#754=DIRECTION('ref_axis',(0.,0.,-1.));
#755=DIRECTION('',(0.,0.,1.));
#756=DIRECTION('center_axis',(0.707106781186548,-0.707106781186547,0.));
#757=DIRECTION('ref_axis',(0.,0.,-1.));
#758=DIRECTION('',(-0.707106781186547,-0.707106781186548,0.));
#759=DIRECTION('',(0.,0.,-1.));
#760=DIRECTION('center_axis',(-0.707106781186547,0.707106781186548,0.));
#761=DIRECTION('ref_axis',(0.,0.,1.));
#762=DIRECTION('',(0.,0.,1.));
#763=DIRECTION('',(0.,0.,-1.));
#764=DIRECTION('center_axis',(-5.33761069531325E-17,1.,0.));
#765=DIRECTION('ref_axis',(1.,5.33761069531325E-17,0.));
#766=DIRECTION('center_axis',(-0.707106781186548,-0.707106781186548,0.));
#767=DIRECTION('ref_axis',(0.,0.,1.));
#768=DIRECTION('',(0.,0.,1.));
#769=DIRECTION('',(-0.707106781186547,0.707106781186547,0.));
#770=DIRECTION('',(0.,0.,-1.));
#771=DIRECTION('center_axis',(0.,0.,1.));
#772=DIRECTION('ref_axis',(1.,0.,0.));
#773=DIRECTION('',(-1.,1.06752213906265E-16,0.));
#774=DIRECTION('',(-2.22044604925031E-16,1.,0.));
#775=DIRECTION('',(-1.,2.1350442781253E-16,0.));
#776=DIRECTION('center_axis',(-2.1350442781253E-16,-1.,0.));
#777=DIRECTION('ref_axis',(-1.,2.1350442781253E-16,0.));
#778=DIRECTION('center_axis',(-1.06752213906265E-16,-1.,0.));
#779=DIRECTION('ref_axis',(-1.,1.06752213906265E-16,0.));
#780=DIRECTION('',(0.,0.,-1.));
#781=DIRECTION('center_axis',(1.,1.13752359080446E-16,0.));
#782=DIRECTION('ref_axis',(1.13752359080446E-16,-1.,0.));
#783=DIRECTION('',(0.,0.,-1.));
#784=DIRECTION('',(0.,0.,-1.));
#785=DIRECTION('center_axis',(-1.13752359080446E-16,1.,0.));
#786=DIRECTION('ref_axis',(1.,1.13752359080446E-16,0.));
#787=DIRECTION('',(0.,0.,-1.));
#788=DIRECTION('center_axis',(5.68761795402228E-17,-1.,0.));
#789=DIRECTION('ref_axis',(-1.,-5.68761795402228E-17,0.));
#790=DIRECTION('',(0.,0.,-1.));
#791=DIRECTION('center_axis',(-1.,-5.68761795402229E-17,0.));
#792=DIRECTION('ref_axis',(-5.68761795402229E-17,1.,0.));
#793=DIRECTION('center_axis',(-1.,-2.22044604925031E-16,0.));
#794=DIRECTION('ref_axis',(-2.22044604925031E-16,1.,0.));
#795=DIRECTION('',(0.,0.,1.));
#796=DIRECTION('',(1.,0.,0.));
#797=DIRECTION('',(0.,0.,1.));
#798=DIRECTION('',(1.,0.,0.));
#799=CARTESIAN_POINT('',(0.,0.,0.));
#800=CARTESIAN_POINT('',(0.,0.,0.));
#801=CARTESIAN_POINT('Origin',(0.305000000000002,0.305000000000001,0.886552310921358));
#802=CARTESIAN_POINT('',(-0.15,0.149999999999999,0.));
#803=CARTESIAN_POINT('',(-0.305000000000002,0.305000000000001,0.886552310921358));
#804=CARTESIAN_POINT('',(-0.296214142261924,0.296214142261923,0.836299907817364));
#805=CARTESIAN_POINT('',(0.305000000000002,0.305000000000001,0.886552310921358));
#806=CARTESIAN_POINT('',(0.305000000000002,0.305000000000001,0.886552310921358));
#807=CARTESIAN_POINT('',(0.15,0.149999999999999,0.));
#808=CARTESIAN_POINT('',(0.296214142261924,0.296214142261923,0.836299907817364));
#809=CARTESIAN_POINT('',(0.152500000000001,0.149999999999999,-6.93889390390723E-17));
#810=CARTESIAN_POINT('Origin',(0.305000000000002,-0.305000000000002,0.886552310921358));
#811=CARTESIAN_POINT('',(0.305000000000002,-0.305000000000002,0.886552310921358));
#812=CARTESIAN_POINT('',(0.305000000000002,-0.305000000000002,0.886552310921358));
#813=CARTESIAN_POINT('',(0.15,-0.15,0.));
#814=CARTESIAN_POINT('',(0.296214142261924,-0.296214142261924,0.836299907817364));
#815=CARTESIAN_POINT('',(0.15,-0.152500000000001,-6.93889390390723E-17));
#816=CARTESIAN_POINT('Origin',(-0.305000000000002,-0.305000000000002,0.886552310921358));
#817=CARTESIAN_POINT('',(-0.305000000000002,-0.305000000000002,0.886552310921358));
#818=CARTESIAN_POINT('',(-0.305000000000002,-0.305000000000002,0.886552310921358));
#819=CARTESIAN_POINT('',(-0.15,-0.15,0.));
#820=CARTESIAN_POINT('',(-0.300607071130963,-0.300607071130963,0.861426109369361));
#821=CARTESIAN_POINT('',(-0.152500000000001,-0.15,-6.93889390390723E-17));
#822=CARTESIAN_POINT('Origin',(-0.305000000000002,0.,0.886552310921358));
#823=CARTESIAN_POINT('',(-0.305000000000002,0.1525,0.886552310921358));
#824=CARTESIAN_POINT('',(-0.15,-2.77555756156289E-16,-6.93889390390723E-17));
#825=CARTESIAN_POINT('Origin',(0.305000000000002,0.305000000000001,0.));
#826=CARTESIAN_POINT('',(-0.305000000000002,0.305000000000001,10.1134476890786));
#827=CARTESIAN_POINT('',(-0.305000000000002,0.305000000000001,0.));
#828=CARTESIAN_POINT('',(0.305000000000002,0.305000000000001,10.1134476890786));
#829=CARTESIAN_POINT('',(0.305000000000002,0.305000000000001,10.1134476890786));
#830=CARTESIAN_POINT('',(0.305000000000002,0.305000000000001,0.));
#831=CARTESIAN_POINT('Origin',(-0.305000000000002,0.305000000000001,0.));
#832=CARTESIAN_POINT('',(-0.305000000000002,-0.305000000000002,10.1134476890786));
#833=CARTESIAN_POINT('',(-0.305000000000002,-0.305000000000002,0.));
#834=CARTESIAN_POINT('',(-0.305000000000002,0.1525,10.1134476890786));
#835=CARTESIAN_POINT('Origin',(0.305000000000002,0.305000000000001,10.1134476890786));
#836=CARTESIAN_POINT('',(-0.15,0.149999999999999,11.));
#837=CARTESIAN_POINT('',(-0.296214142261924,0.296214142261923,10.1637000921826));
#838=CARTESIAN_POINT('',(0.15,0.149999999999999,11.));
#839=CARTESIAN_POINT('',(0.152500000000001,0.149999999999999,11.));
#840=CARTESIAN_POINT('',(0.296214142261924,0.296214142261923,10.1637000921826));
#841=CARTESIAN_POINT('Origin',(0.305000000000002,-0.305000000000002,10.1134476890786));
#842=CARTESIAN_POINT('',(0.15,-0.15,11.));
#843=CARTESIAN_POINT('',(0.15,-0.152500000000001,11.));
#844=CARTESIAN_POINT('',(0.305000000000002,-0.305000000000002,10.1134476890786));
#845=CARTESIAN_POINT('',(0.296214142261924,-0.296214142261924,10.1637000921826));
#846=CARTESIAN_POINT('',(0.305000000000002,-0.305000000000002,10.1134476890786));
#847=CARTESIAN_POINT('Origin',(-0.305000000000002,-0.305000000000002,10.1134476890786));
#848=CARTESIAN_POINT('',(-0.15,-0.15,11.));
#849=CARTESIAN_POINT('',(-0.152500000000001,-0.15,11.));
#850=CARTESIAN_POINT('',(-0.300607071130963,-0.300607071130963,10.1385738906306));
#851=CARTESIAN_POINT('',(-0.305000000000002,-0.305000000000002,10.1134476890786));
#852=CARTESIAN_POINT('Origin',(-0.305000000000002,0.,10.1134476890786));
#853=CARTESIAN_POINT('',(-0.15,-2.77555756156289E-16,11.));
#854=CARTESIAN_POINT('Origin',(0.305000000000002,-0.305000000000002,0.));
#855=CARTESIAN_POINT('',(0.305000000000002,-0.305000000000002,0.));
#856=CARTESIAN_POINT('Origin',(-0.305000000000002,-0.305000000000002,0.));
#857=CARTESIAN_POINT('Origin',(0.,-5.55111512312578E-16,11.));
#858=CARTESIAN_POINT('Origin',(0.,-5.55111512312578E-16,0.));
#859=CARTESIAN_POINT('',(0.,0.,0.));
#860=CARTESIAN_POINT('Origin',(1.2735,0.228529241822502,5.32359204875934));
#861=CARTESIAN_POINT('',(1.2735,1.0765,5.79));
#862=CARTESIAN_POINT('',(1.2735,-1.0765,5.79));
#863=CARTESIAN_POINT('',(1.2735,0.114264620911249,5.79));
#864=CARTESIAN_POINT('',(1.2735,1.0765,8.15));
#865=CARTESIAN_POINT('',(1.2735,1.0765,8.15));
#866=CARTESIAN_POINT('',(1.2735,0.849999999999999,8.15));
#867=CARTESIAN_POINT('',(1.2735,0.114264620911249,8.15));
#868=CARTESIAN_POINT('',(1.2735,0.849999999999999,7.75));
#869=CARTESIAN_POINT('',(1.2735,0.849999999999996,6.73679602437967));
#870=CARTESIAN_POINT('',(1.2735,-0.850000000000001,7.75));
#871=CARTESIAN_POINT('',(1.2735,0.114264620911249,7.75));
#872=CARTESIAN_POINT('',(1.2735,-0.850000000000003,8.15));
#873=CARTESIAN_POINT('',(1.2735,-0.850000000000003,6.73679602437967));
#874=CARTESIAN_POINT('',(1.2735,-1.0765,8.15));
#875=CARTESIAN_POINT('',(1.2735,0.114264620911249,8.15));
#876=CARTESIAN_POINT('',(1.2735,-1.0765,8.15));
#877=CARTESIAN_POINT('Origin',(1.66533453693773E-15,-3.60822483003176E-15,
7.75));
#878=CARTESIAN_POINT('',(-1.3,0.849999999999996,7.75));
#879=CARTESIAN_POINT('',(19.129,0.849999999999996,7.75));
#880=CARTESIAN_POINT('',(-1.3,-0.850000000000003,7.75));
#881=CARTESIAN_POINT('',(-1.3,-0.625000000000004,7.75));
#882=CARTESIAN_POINT('',(19.129,-0.850000000000003,7.75));
#883=CARTESIAN_POINT('',(-0.305000000000002,-0.305000000000002,7.75));
#884=CARTESIAN_POINT('',(0.305000000000002,-0.305000000000002,7.75));
#885=CARTESIAN_POINT('',(-0.1525,-0.305000000000002,7.75));
#886=CARTESIAN_POINT('',(-0.305000000000002,0.305000000000001,7.75));
#887=CARTESIAN_POINT('',(-0.305000000000002,0.152499999999999,7.75));
#888=CARTESIAN_POINT('',(0.305000000000002,0.305000000000001,7.75));
#889=CARTESIAN_POINT('',(0.152500000000002,0.305000000000001,7.75));
#890=CARTESIAN_POINT('',(0.305000000000002,-0.152500000000003,7.75));
#891=CARTESIAN_POINT('Origin',(-1.3,0.849999999999996,8.15));
#892=CARTESIAN_POINT('',(-1.3,0.849999999999996,8.15));
#893=CARTESIAN_POINT('',(17.179,0.849999999999996,8.15));
#894=CARTESIAN_POINT('',(-1.3,0.849999999999996,8.15));
#895=CARTESIAN_POINT('Origin',(2.22044604925031E-15,-4.16333634234434E-15,
8.15));
#896=CARTESIAN_POINT('',(1.1,1.25,8.15));
#897=CARTESIAN_POINT('',(1.1875,1.1625,8.15));
#898=CARTESIAN_POINT('',(-1.1,1.25,8.15));
#899=CARTESIAN_POINT('',(-1.3,1.25,8.15));
#900=CARTESIAN_POINT('',(-1.3,1.05,8.15));
#901=CARTESIAN_POINT('',(-1.1875,1.1625,8.15));
#902=CARTESIAN_POINT('',(-1.3,-1.25,8.15));
#903=CARTESIAN_POINT('Origin',(2.22044604925031E-15,-4.16333634234434E-15,
5.79));
#904=CARTESIAN_POINT('',(1.1,-1.25,5.79));
#905=CARTESIAN_POINT('',(1.1875,-1.1625,5.79));
#906=CARTESIAN_POINT('',(-1.1,-1.25,5.79));
#907=CARTESIAN_POINT('',(1.3,-1.25,5.79));
#908=CARTESIAN_POINT('',(-1.3,-1.05,5.79));
#909=CARTESIAN_POINT('',(-1.1875,-1.1625,5.79));
#910=CARTESIAN_POINT('',(-1.3,1.05,5.79));
#911=CARTESIAN_POINT('',(-1.3,-1.25,5.79));
#912=CARTESIAN_POINT('',(-1.1,1.25,5.79));
#913=CARTESIAN_POINT('',(-1.1875,1.1625,5.79));
#914=CARTESIAN_POINT('',(1.1,1.25,5.79));
#915=CARTESIAN_POINT('',(-1.3,1.25,5.79));
#916=CARTESIAN_POINT('',(1.1875,1.1625,5.79));
#917=CARTESIAN_POINT('',(-0.305000000000002,-0.305000000000002,5.79));
#918=CARTESIAN_POINT('',(0.305000000000002,-0.305000000000002,5.79));
#919=CARTESIAN_POINT('',(0.305000000000002,-0.305000000000002,5.79));
#920=CARTESIAN_POINT('',(0.305000000000002,0.305000000000001,5.79));
#921=CARTESIAN_POINT('',(0.305000000000002,0.305000000000001,5.79));
#922=CARTESIAN_POINT('',(-0.305000000000002,0.305000000000001,5.79));
#923=CARTESIAN_POINT('',(-0.305000000000002,0.305000000000001,5.79));
#924=CARTESIAN_POINT('',(-0.305000000000002,-0.305000000000002,5.79));
#925=CARTESIAN_POINT('Origin',(1.2,1.15,8.15));
#926=CARTESIAN_POINT('',(1.1,1.25,8.15));
#927=CARTESIAN_POINT('Origin',(1.2,-1.15,8.15));
#928=CARTESIAN_POINT('',(1.1,-1.25,8.15));
#929=CARTESIAN_POINT('',(1.1875,-1.1625,8.15));
#930=CARTESIAN_POINT('',(1.1,-1.25,8.15));
#931=CARTESIAN_POINT('Origin',(-1.2,1.15,8.15));
#932=CARTESIAN_POINT('',(-1.3,1.05,8.15));
#933=CARTESIAN_POINT('',(-1.1,1.25,8.15));
#934=CARTESIAN_POINT('Origin',(-1.3,1.25,8.15));
#935=CARTESIAN_POINT('Origin',(-1.2,-1.15,8.15));
#936=CARTESIAN_POINT('',(-1.1,-1.25,8.15));
#937=CARTESIAN_POINT('',(-1.1,-1.25,8.15));
#938=CARTESIAN_POINT('',(-1.3,-1.05,8.15));
#939=CARTESIAN_POINT('',(-1.1875,-1.1625,8.15));
#940=CARTESIAN_POINT('',(-1.3,-1.05,8.15));
#941=CARTESIAN_POINT('Origin',(2.22044604925031E-15,-4.16333634234434E-15,
8.15));
#942=CARTESIAN_POINT('',(-1.3,-0.850000000000003,8.15));
#943=CARTESIAN_POINT('',(0.650000000000001,-0.850000000000003,8.15));
#944=CARTESIAN_POINT('',(-1.3,-1.25,8.15));
#945=CARTESIAN_POINT('',(1.3,-1.25,8.15));
#946=CARTESIAN_POINT('Origin',(1.3,-1.25,8.15));
#947=CARTESIAN_POINT('Origin',(1.3,-0.850000000000003,8.15));
#948=CARTESIAN_POINT('',(-1.3,-0.850000000000003,8.15));
#949=CARTESIAN_POINT('Origin',(-0.305000000000002,0.305000000000001,8.15));
#950=CARTESIAN_POINT('',(-0.305000000000002,-0.305000000000002,8.15));
#951=CARTESIAN_POINT('',(-0.305000000000002,0.305000000000001,8.15));
#952=CARTESIAN_POINT('Origin',(-0.305000000000002,-0.305000000000002,8.15));
#953=CARTESIAN_POINT('',(0.305000000000002,-0.305000000000002,8.15));
#954=CARTESIAN_POINT('Origin',(0.305000000000002,0.305000000000001,8.15));
#955=CARTESIAN_POINT('',(0.305000000000002,0.305000000000001,8.15));
#956=CARTESIAN_POINT('Origin',(0.305000000000002,-0.305000000000002,8.15));
#957=CARTESIAN_POINT('Origin',(-1.3,-1.25,8.15));
#958=CARTESIAN_POINT('',(0.,5.55111512312578E-16,-0.02));
#959=CARTESIAN_POINT('',(0.,0.,0.));
#960=UNCERTAINTY_MEASURE_WITH_UNIT(LENGTH_MEASURE(0.01),#968,
'DISTANCE_ACCURACY_VALUE',
'Maximum model space distance between geometric entities at asserted c
onnectivities');
#961=UNCERTAINTY_MEASURE_WITH_UNIT(LENGTH_MEASURE(0.01),#968,
'DISTANCE_ACCURACY_VALUE',
'Maximum model space distance between geometric entities at asserted c
onnectivities');
#962=UNCERTAINTY_MEASURE_WITH_UNIT(LENGTH_MEASURE(0.01),#968,
'DISTANCE_ACCURACY_VALUE',
'Maximum model space distance between geometric entities at asserted c
onnectivities');
#963=UNCERTAINTY_MEASURE_WITH_UNIT(LENGTH_MEASURE(0.01),#968,
'DISTANCE_ACCURACY_VALUE',
'Maximum model space distance between geometric entities at asserted c
onnectivities');
#964=(
GEOMETRIC_REPRESENTATION_CONTEXT(3)
GLOBAL_UNCERTAINTY_ASSIGNED_CONTEXT((#960))
GLOBAL_UNIT_ASSIGNED_CONTEXT((#968,#970,#971))
REPRESENTATION_CONTEXT('','3D')
);
#965=(
GEOMETRIC_REPRESENTATION_CONTEXT(3)
GLOBAL_UNCERTAINTY_ASSIGNED_CONTEXT((#961))
GLOBAL_UNIT_ASSIGNED_CONTEXT((#968,#970,#971))
REPRESENTATION_CONTEXT('','3D')
);
#966=(
GEOMETRIC_REPRESENTATION_CONTEXT(3)
GLOBAL_UNCERTAINTY_ASSIGNED_CONTEXT((#962))
GLOBAL_UNIT_ASSIGNED_CONTEXT((#968,#970,#971))
REPRESENTATION_CONTEXT('','3D')
);
#967=(
GEOMETRIC_REPRESENTATION_CONTEXT(3)
GLOBAL_UNCERTAINTY_ASSIGNED_CONTEXT((#963))
GLOBAL_UNIT_ASSIGNED_CONTEXT((#968,#970,#971))
REPRESENTATION_CONTEXT('','3D')
);
#968=(
LENGTH_UNIT()
NAMED_UNIT(*)
SI_UNIT(.MILLI.,.METRE.)
);
#969=(
LENGTH_UNIT()
NAMED_UNIT(*)
SI_UNIT($,.METRE.)
);
#970=(
NAMED_UNIT(*)
PLANE_ANGLE_UNIT()
SI_UNIT($,.RADIAN.)
);
#971=(
NAMED_UNIT(*)
SI_UNIT($,.STERADIAN.)
SOLID_ANGLE_UNIT()
);
#972=SHAPE_DEFINITION_REPRESENTATION(#975,#980);
#973=SHAPE_DEFINITION_REPRESENTATION(#976,#981);
#974=SHAPE_DEFINITION_REPRESENTATION(#977,#982);
#975=PRODUCT_DEFINITION_SHAPE('',$,#984);
#976=PRODUCT_DEFINITION_SHAPE('',$,#985);
#977=PRODUCT_DEFINITION_SHAPE('',$,#986);
#978=PRODUCT_DEFINITION_SHAPE($,$,#17);
#979=PRODUCT_DEFINITION_SHAPE($,$,#18);
#980=SHAPE_REPRESENTATION('',(#612,#647,#648),#964);
#981=SHAPE_REPRESENTATION('',(#613),#965);
#982=SHAPE_REPRESENTATION('',(#628),#966);
#983=PRODUCT_DEFINITION_CONTEXT('part definition',#994,'design');
#984=PRODUCT_DEFINITION('2025-12-07-03-15-00-802','6 pin header',#987,#983);
#985=PRODUCT_DEFINITION('2025-12-07-03-15-00-803','Stift',#988,#983);
#986=PRODUCT_DEFINITION('2025-12-07-03-15-00-804','Klammer',#989,#983);
#987=PRODUCT_DEFINITION_FORMATION('',$,#996);
#988=PRODUCT_DEFINITION_FORMATION('',$,#997);
#989=PRODUCT_DEFINITION_FORMATION('',$,#998);
#990=PRODUCT_RELATED_PRODUCT_CATEGORY('6 pin header','6 pin header',(#996));
#991=PRODUCT_RELATED_PRODUCT_CATEGORY('Stift','Stift',(#997));
#992=PRODUCT_RELATED_PRODUCT_CATEGORY('Klammer','Klammer',(#998));
#993=APPLICATION_PROTOCOL_DEFINITION('international standard',
'automotive_design',2009,#994);
#994=APPLICATION_CONTEXT(
'Core Data for Automotive Mechanical Design Process');
#995=PRODUCT_CONTEXT('part definition',#994,'mechanical');
#996=PRODUCT('2025-12-07-03-15-00-802','6 pin header',$,(#995));
#997=PRODUCT('2025-12-07-03-15-00-803','Stift',$,(#995));
#998=PRODUCT('2025-12-07-03-15-00-804','Klammer',$,(#995));
#999=PRESENTATION_STYLE_ASSIGNMENT((#1002));
#1000=PRESENTATION_STYLE_ASSIGNMENT((#1003));
#1001=PRESENTATION_STYLE_ASSIGNMENT((#1004));
#1002=SURFACE_STYLE_USAGE(.BOTH.,#1005);
#1003=SURFACE_STYLE_USAGE(.BOTH.,#1006);
#1004=SURFACE_STYLE_USAGE(.BOTH.,#1007);
#1005=SURFACE_SIDE_STYLE('',(#1008));
#1006=SURFACE_SIDE_STYLE('',(#1009));
#1007=SURFACE_SIDE_STYLE('',(#1010));
#1008=SURFACE_STYLE_FILL_AREA(#1011);
#1009=SURFACE_STYLE_FILL_AREA(#1012);
#1010=SURFACE_STYLE_FILL_AREA(#1013);
#1011=FILL_AREA_STYLE('Steel - Satin',(#1014));
#1012=FILL_AREA_STYLE('Opaque(244,229,167)',(#1015));
#1013=FILL_AREA_STYLE('Opaque(25,25,25)',(#1016));
#1014=FILL_AREA_STYLE_COLOUR('Steel - Satin',#1017);
#1015=FILL_AREA_STYLE_COLOUR('Opaque(244,229,167)',#1018);
#1016=FILL_AREA_STYLE_COLOUR('Opaque(25,25,25)',#1019);
#1017=COLOUR_RGB('Steel - Satin',0.627450980392157,0.627450980392157,0.627450980392157);
#1018=COLOUR_RGB('Opaque(244,229,167)',0.956862745098039,0.898039215686275,
0.654901960784314);
#1019=COLOUR_RGB('Opaque(25,25,25)',0.0980392156862745,0.0980392156862745,
0.0980392156862745);
ENDSEC;
END-ISO-10303-21;
